# xmcd
#
# Track frame offsets: 
#        150
#        5567
#        26345
#        51718
#        75190
#        94394
#        117806
#        141113
#        170414
#        192161
#        209107
#        230209
#        252134
#        275646
#        298627
#
# Disc length: 4350 seconds
#
# Revision: 1
# Processed by: cddbd v1.5.2PL0 Copyright (c) Steve Scherf et al.
# Submitted via: ExactAudioCopy v0.99pb4
#
DISCID=dd10fc0f
DTITLE=Bruce Springsteen - Brussels, 5-30-05(Zimmy 21 version-Disc 1)
DYEAR=2005
DGENRE=Rock and Roll
TTITLE0=Intro
TTITLE1=My Beautiful Reward
TTITLE2=Reason To Believe
TTITLE3=Devils and Dust
TTITLE4=Empty Sky
TTITLE5=Long Time Comin'
TTITLE6=Silver Palomino
TTITLE7=The River
TTITLE8=Tougher Than The Rest
TTITLE9=State Trooper
TTITLE10=All The Way Home
TTITLE11=Nebraska
TTITLE12=Reno
TTITLE13=Real World
TTITLE14=Racing In The Street
EXTD=
EXTT0=
EXTT1=
EXTT2=
EXTT3=
EXTT4=
EXTT5=
EXTT6=
EXTT7=
EXTT8=
EXTT9=
EXTT10=
EXTT11=
EXTT12=
EXTT13=
EXTT14=
PLAYORDER=
